<svg width="20" height="20" viewBox="0 0 20 20" fill="none" xmlns="http://www.w3.org/2000/svg">
<g clip-path="url(#clip0_6708_3700)">
<path d="M20 9.99999C20 4.48527 15.5141 0 9.99991 0C4.4855 0 0 4.48529 0 9.99999C0 15.5141 4.4855 20 9.99991 20C15.5141 20 20 15.5141 20 9.99999Z" fill="#00586A"/>
<path fill-rule="evenodd" clip-rule="evenodd" d="M6.58154 11.4564C6.58154 10.5357 5.89379 9.94331 5.05797 9.81629C5.81954 9.52044 6.32766 9.06546 6.32766 8.22939C6.31691 6.94912 5.3646 6.49414 4.21133 6.49414H1.95764V13.5516H4.35948C5.61889 13.5516 6.58154 12.7476 6.58154 11.4564ZM4.99445 8.39864C4.99445 9.04419 4.58193 9.41451 3.9467 9.41451H3.29086V7.49904H4.04208C4.6452 7.49904 4.99445 7.80586 4.99445 8.39864ZM5.21667 11.4245C5.21667 12.0808 4.86722 12.536 4.16918 12.536H3.29091V10.4091H4.20083C4.8039 10.4091 5.21667 10.8109 5.21667 11.4245Z" fill="white"/>
<path d="M12.9286 11.0016V6.49414H11.5957V10.9168C11.5957 11.7953 11.3628 12.5995 10.3999 12.5995C9.44766 12.5995 9.20411 11.7953 9.20411 10.9168V6.49414H7.87109V11.0016C7.87109 12.6731 8.68586 13.6679 10.3999 13.6679C12.0608 13.6679 12.9286 12.6731 12.9286 11.0016Z" fill="white"/>
<path d="M18.3894 11.4777C18.3894 9.07585 15.5645 9.89083 15.5645 8.33515C15.5645 7.55248 16.0933 7.3828 16.7702 7.3828C17.1725 7.3828 17.5643 7.44633 17.9239 7.605L18.1883 6.5788C17.7017 6.45175 17.2043 6.37793 16.6966 6.37793C15.4056 6.37793 14.2205 7.00213 14.2205 8.4301C14.2205 10.8854 17.0032 9.97522 17.0032 11.5726C17.0032 12.4402 16.3155 12.6731 15.5856 12.6731C15.1412 12.6731 14.6438 12.5885 14.242 12.398L14.2205 13.467C14.7179 13.6255 15.2471 13.6679 15.7759 13.6679C17.1303 13.6679 18.3894 12.9907 18.3894 11.4777Z" fill="white"/>
</g>
<defs>
<clipPath id="clip0_6708_3700">
<rect width="20" height="20" fill="white"/>
</clipPath>
</defs>
</svg>
