<svg width="20" height="20" viewBox="0 0 20 20" fill="none" xmlns="http://www.w3.org/2000/svg">
<g clip-path="url(#clip0_6708_3735)">
<path fill-rule="evenodd" clip-rule="evenodd" d="M2.5 0C1.11929 0 0 1.11929 0 2.5V17.5C0 18.8808 1.11929 20 2.5 20H17.5C18.8808 20 20 18.8808 20 17.5V2.5C20 1.11929 18.8808 0 17.5 0H2.5ZM4.10497 5.94736C4.10497 3.36843 7.05235 3 9.99971 3C13.2565 3 15.8945 3.36843 15.8945 5.94736V12.9474C15.8945 14.3695 14.7376 15.5264 13.3155 15.5264L14.4207 16.6316V17H12.9471L11.4734 15.5264H8.69551L7.22183 17H5.57866V16.6316L6.68392 15.5264C5.26182 15.5264 4.10497 14.3695 4.10497 12.9474V5.94736ZM5.57861 12.948C5.57861 13.5596 6.0723 14.0533 6.68387 14.0533C7.29546 14.0533 7.78914 13.5596 7.78914 12.948C7.78914 12.3365 7.29546 11.8428 6.68387 11.8428C6.0723 11.8428 5.57861 12.3365 5.57861 12.948ZM9.26286 8.89471H5.57865V5.94734H9.26286V8.89471ZM10.7365 5.94734V8.89471H14.4207V5.94734H10.7365ZM13.3155 14.0533C12.7039 14.0533 12.2102 13.5596 12.2102 12.948C12.2102 12.3365 12.7039 11.8428 13.3155 11.8428C13.927 11.8428 14.4207 12.3365 14.4207 12.948C14.4207 13.5596 13.927 14.0533 13.3155 14.0533Z" fill="#D82020"/>
</g>
<defs>
<clipPath id="clip0_6708_3735">
<rect width="20" height="20" fill="white"/>
</clipPath>
</defs>
</svg>
