<svg width="20" height="20" viewBox="0 0 20 20" fill="none" xmlns="http://www.w3.org/2000/svg">
<g clip-path="url(#clip0_6708_3729)">
<path d="M17 0C18.6569 0 20 1.34315 20 3V17C20 18.6569 18.6569 20 17 20H3C1.34315 20 0 18.6569 0 17V3C0 1.34315 1.34315 0 3 0H17ZM11.3691 15.7197C10.9856 15.9446 10.529 16.0576 10 16.0576C9.47099 16.0576 9.01439 15.9446 8.63086 15.7197C8.24756 15.495 7.83117 15.2506 7.38184 14.9863C6.94549 15.2376 6.52852 15.4786 6.13184 15.71C5.73507 15.9414 5.27848 16.0576 4.7627 16.0576H3.17578V17.4854H4.7627C5.19911 17.4854 5.60236 17.4257 5.97266 17.3066C6.34297 17.1876 6.81315 16.9698 7.38184 16.6523C7.96361 16.9829 8.43302 17.205 8.79004 17.3174C9.14706 17.4297 9.55044 17.4854 10 17.4854C10.4496 17.4854 10.8529 17.4297 11.21 17.3174C11.567 17.205 12.0364 16.9829 12.6182 16.6523C13.2001 16.983 13.6703 17.205 14.0273 17.3174C14.3844 17.4297 14.7878 17.4854 15.2373 17.4854H16.8242V16.0576H15.2373C14.7215 16.0576 14.2649 15.9414 13.8682 15.71C13.4715 15.4786 13.0545 15.2376 12.6182 14.9863C12.1688 15.2506 11.7524 15.495 11.3691 15.7197ZM8.0957 2.25V3.67871H6.19141C5.79478 3.67871 5.45737 3.81718 5.17969 4.09473C4.90201 4.3724 4.76275 4.70979 4.7627 5.10645V7.92383L3.5332 8.26074C3.34818 8.31361 3.20563 8.42277 3.10645 8.58789C3.00726 8.75321 2.97693 8.9291 3.0166 9.11426L4.28711 14.6289H4.80273C5.17275 14.6289 5.52628 14.5596 5.86328 14.4209C6.20053 14.282 6.50209 14.0799 6.7666 13.8154L7.38184 13.2002L8.0957 13.875C8.3602 14.1263 8.65451 14.3148 8.97852 14.4404C9.3025 14.566 9.64296 14.6289 10 14.6289C10.357 14.6289 10.6975 14.566 11.0215 14.4404C11.3455 14.3148 11.6398 14.1263 11.9043 13.875L12.6182 13.2002L13.2334 13.8154C13.4979 14.0799 13.7995 14.282 14.1367 14.4209C14.4737 14.5596 14.8272 14.6289 15.1973 14.6289H15.7129L16.9834 9.11426C17.0231 8.9291 16.9927 8.75321 16.8936 8.58789C16.7944 8.42277 16.6518 8.31361 16.4668 8.26074L15.2373 7.92383V5.10645C15.2373 4.70979 15.098 4.3724 14.8203 4.09473C14.5426 3.81718 14.2052 3.67871 13.8086 3.67871H11.9043V2.25H8.0957ZM13.8086 5.10645V7.54688L10 6.53516L6.19141 7.54688V5.10645H13.8086Z" fill="#AA5C13"/>
</g>
<defs>
<clipPath id="clip0_6708_3729">
<rect width="20" height="20" fill="white"/>
</clipPath>
</defs>
</svg>
