<svg width="20" height="20" viewBox="0 0 20 20" fill="none" xmlns="http://www.w3.org/2000/svg">
<g clip-path="url(#clip0_6708_745)">
<path fill-rule="evenodd" clip-rule="evenodd" d="M19.1667 10C19.1667 4.94368 15.0564 0.833344 10 0.833344C4.94371 0.833344 0.833374 4.94368 0.833374 10C0.833374 15.0563 4.94371 19.1667 10 19.1667C15.0564 19.1667 19.1667 15.0563 19.1667 10Z" fill="#499253"/>
<path fill-rule="evenodd" clip-rule="evenodd" d="M16.017 12.4383C16.017 14.6603 13.861 17.2453 10.231 17.2453C8.20703 17.2453 5.87136 16.336 4.59536 15.192V12.3063C5.80536 14.048 8.00903 15.39 10.231 15.39C11.5914 15.39 12.684 14.6127 12.684 13.7803C12.684 10.649 4.47803 12.585 4.47803 7.18401C4.47803 4.34967 7.24636 2.82434 9.73236 2.82434C11.804 2.82434 13.6594 3.50267 15.137 4.64667V7.05201C13.861 5.67334 11.9397 4.46334 9.68469 4.46334C8.40869 4.46334 7.67903 5.14167 7.67903 5.93734C7.67903 9.28867 16.017 6.93467 16.017 12.4383Z" fill="white"/>
</g>
<defs>
<clipPath id="clip0_6708_745">
<rect width="20" height="20" fill="white"/>
</clipPath>
</defs>
</svg>
