<svg width="20" height="20" viewBox="0 0 20 20" fill="none" xmlns="http://www.w3.org/2000/svg">
<g clip-path="url(#clip0_6708_735)">
<path d="M17 0H3C1.34315 0 0 1.34315 0 3V17C0 18.6569 1.34315 20 3 20H17C18.6569 20 20 18.6569 20 17V3C20 1.34315 18.6569 0 17 0Z" fill="#0069BE"/>
<path d="M15.5345 3.2002H12.2474V11.7862C12.2474 13.3542 11.6919 14.4686 9.98582 14.4686C8.26664 14.4686 7.70782 13.3542 7.70782 11.7862V3.2002H4.46997V12.1051C4.46997 15.8327 7.47114 17.2002 9.98253 17.2002C12.4808 17.2002 15.5313 15.836 15.5313 12.1051L15.5345 3.2002Z" fill="white"/>
</g>
<defs>
<clipPath id="clip0_6708_735">
<rect width="20" height="20" fill="white"/>
</clipPath>
</defs>
</svg>
