<svg width="20" height="20" viewBox="0 0 20 20" fill="none" xmlns="http://www.w3.org/2000/svg">
<g clip-path="url(#clip0_6708_3705)">
<path d="M17 20C18.6569 20 20 18.6569 20 17V3C20 1.34315 18.6569 0 17 0H3C1.34315 0 0 1.34315 0 3V17C0 18.6569 1.34315 20 3 20H17Z" fill="#D82020"/>
<path fill-rule="evenodd" clip-rule="evenodd" d="M4.58362 6.021V7.02857H3.17552V12.5527H1.94354V7.02857H0.535645V6.021H4.58362ZM7.19244 7.65395C7.28044 7.65395 7.46622 7.67372 7.55442 7.71255L7.22184 8.73942C7.11409 8.71002 7.00662 8.6905 6.89914 8.6905C6.20507 8.6905 6.04847 9.3159 6.04847 9.92247V12.5526H4.88494V7.74192H5.94097L6.02894 8.37742C6.33209 7.86917 6.68419 7.65395 7.19244 7.65395ZM11.6666 12.5527C11.6608 12.5096 11.6549 12.4663 11.6489 12.4228C11.6143 12.1708 11.5789 11.9132 11.5789 11.6627V9.02305C11.5789 8.182 11.0015 7.65395 9.87747 7.65395C9.36852 7.65395 8.77229 7.71255 8.30294 7.92772L8.49862 8.7394C8.83107 8.5637 9.29042 8.48537 9.64272 8.48537C10.1512 8.48537 10.4539 8.71 10.4539 9.20885V9.7465C10.4301 9.74251 10.4053 9.73816 10.3795 9.73362C10.2148 9.70472 10.0066 9.66817 9.71119 9.66817C8.61612 9.66817 7.86312 10.2058 7.86312 11.2033C7.86312 12.0926 8.34197 12.6404 9.28077 12.6404C9.81822 12.6404 10.2192 12.4061 10.4935 11.9856L10.5812 12.5526L11.6666 12.5527ZM10.4539 11.1053C10.4539 11.5359 10.0823 11.8584 9.64272 11.8584C9.21232 11.8584 9.03639 11.5552 9.03639 11.1443C9.03639 10.7238 9.28074 10.343 9.82832 10.343C10.1117 10.343 10.3271 10.3825 10.4539 10.431V11.1053ZM18.9881 9.15995V12.5527L17.8241 12.5526V9.24765C17.8241 8.82712 17.6482 8.48537 17.2082 8.48537C16.6905 8.48537 16.5145 9.0327 16.5145 9.51225V12.5527H15.3602V9.24767C15.3602 8.78835 15.1847 8.4854 14.7442 8.4854C14.2362 8.4854 14.0506 9.05225 14.0506 9.53135V12.5526H12.8866V7.74192H13.9132L14.0014 8.38707C14.1967 7.9468 14.6468 7.65395 15.2141 7.65395C15.9762 7.65395 16.2798 8.04532 16.436 8.38707C16.6124 7.97665 17.0322 7.65395 17.678 7.65395C18.5779 7.65395 18.9881 8.31887 18.9881 9.15995Z" fill="white"/>
</g>
<defs>
<clipPath id="clip0_6708_3705">
<rect width="20" height="20" fill="white"/>
</clipPath>
</defs>
</svg>
